<?xml version="1.0" encoding="utf-8"?>
<!-- Generator: Adobe Illustrator 19.2.0, SVG Export Plug-In . SVG Version: 6.00 Build 0)  -->
<svg version="1.0" id="Layer_1" xmlns="http://www.w3.org/2000/svg" xmlns:xlink="http://www.w3.org/1999/xlink" x="0px" y="0px"
	 viewBox="0 0 38 38" enable-background="new 0 0 38 38" xml:space="preserve">
<title>parkrun-flag-fra</title>
<g>
	<defs>
		<path id="SVGID_1_" d="M6,0h26c3.314,0,6,2.686,6,6v26c0,3.314-2.686,6-6,6H6c-3.314,0-6-2.686-6-6V6C0,2.686,2.686,0,6,0z"/>
	</defs>
	<clipPath id="SVGID_2_">
		<use xlink:href="#SVGID_1_"  overflow="visible"/>
	</clipPath>
	<g clip-path="url(#SVGID_2_)">
		<rect x="-14.857" y="-0.75" fill="none" width="67.713" height="39.5"/>
		<rect x="7.214" y="-0.75" fill="#F4F4F4" width="22.571" height="39.5"/>
		<rect x="-9.76" y="-0.75" fill="#1A237B" width="22.571" height="39.5"/>
		<rect x="25.188" y="-0.75" fill="#BE003A" width="22.571" height="39.5"/>
	</g>
</g>
<g opacity="0.2">
	<path d="M32,36H6c-3.314,0-6-2.686-6-6v2c0,3.314,2.686,6,6,6h26c3.314,0,6-2.686,6-6v-2C38,33.314,35.314,36,32,36z"/>
</g>
</svg>
