<?xml version="1.0" encoding="utf-8"?>
<!-- Generator: Adobe Illustrator 19.2.0, SVG Export Plug-In . SVG Version: 6.00 Build 0)  -->
<svg version="1.0" id="Layer_1" xmlns="http://www.w3.org/2000/svg" xmlns:xlink="http://www.w3.org/1999/xlink" x="0px" y="0px"
	 viewBox="0 0 38 38" enable-background="new 0 0 38 38" xml:space="preserve">
<g id="Layer_1_1_">
	<g>
		<g>
			<defs>
				<path id="SVGID_1_" d="M38,32c0,3.3-2.7,6-6,6H6c-3.3,0-6-2.7-6-6V6c0-3.3,2.7-6,6-6h26c3.3,0,6,2.7,6,6V32z"/>
			</defs>
			<clipPath id="SVGID_2_">
				<use xlink:href="#SVGID_1_"  overflow="visible"/>
			</clipPath>
			<rect x="-14.9" y="-0.8" clip-path="url(#SVGID_2_)" fill="none" width="67.7" height="39.5"/>
		</g>
		<g>
			<defs>
				<path id="SVGID_3_" d="M38,32c0,3.3-2.7,6-6,6H6c-3.3,0-6-2.7-6-6V6c0-3.3,2.7-6,6-6h26c3.3,0,6,2.7,6,6V32z"/>
			</defs>
			<clipPath id="SVGID_4_">
				<use xlink:href="#SVGID_3_"  overflow="visible"/>
			</clipPath>
			<g clip-path="url(#SVGID_4_)">
				<rect x="7.2" y="-0.8" fill="#F4F4F4" width="22.6" height="39.5"/>
				<rect x="-9.8" y="-0.8" fill="#409A63" width="22.6" height="39.5"/>
				<rect x="25.2" y="-0.8" fill="#BE003A" width="22.6" height="39.5"/>
			</g>
		</g>
	</g>
	<g opacity="0.2">
		<path d="M32,36H6c-3.3,0-6-2.7-6-6v2c0,3.3,2.7,6,6,6h26c3.3,0,6-2.7,6-6v-2C38,33.3,35.3,36,32,36z"/>
	</g>
</g>
<g id="Layer_2">
</g>
<g id="Õ_xBA__x2264__x201E__x5F_1">
</g>
</svg>
