<?xml version="1.0" encoding="utf-8"?>
<!-- Generator: Adobe Illustrator 17.1.0, SVG Export Plug-In . SVG Version: 6.00 Build 0)  -->
<!DOCTYPE svg PUBLIC "-//W3C//DTD SVG 1.1//EN" "http://www.w3.org/Graphics/SVG/1.1/DTD/svg11.dtd">
<svg version="1.1" xmlns="http://www.w3.org/2000/svg" xmlns:xlink="http://www.w3.org/1999/xlink" x="0px" y="0px"
	 viewBox="0 0 38 38" enable-background="new 0 0 38 38" xml:space="preserve">
<g id="Layer_1">
	<g>
		<defs>
			<path id="SVGID_1_" d="M38,32c0,3.314-2.686,6-6,6H6c-3.314,0-6-2.686-6-6V6c0-3.314,2.686-6,6-6h26c3.314,0,6,2.686,6,6V32z"/>
		</defs>
		<clipPath id="SVGID_2_">
			<use xlink:href="#SVGID_1_"  overflow="visible"/>
		</clipPath>
		<g clip-path="url(#SVGID_2_)">
			<g>
				<defs>
					<rect id="SVGID_3_" x="-17.574" y="-2.475" width="73.973" height="43.152"/>
				</defs>
				<clipPath id="SVGID_4_">
					<use xlink:href="#SVGID_3_"  overflow="visible"/>
				</clipPath>
				<rect x="-17.574" y="-2.475" clip-path="url(#SVGID_4_)" fill="#BE003A" width="73.973" height="43.152"/>
				<rect x="6.418" y="-2.475" clip-path="url(#SVGID_4_)" fill="#EFEFEF" width="7.996" height="43.152"/>
				<rect x="-17.574" y="15.103" clip-path="url(#SVGID_4_)" fill="#EFEFEF" width="73.973" height="7.996"/>
			</g>
		</g>
	</g>
	<g opacity="0.2">
		<path d="M32,36H6c-3.314,0-6-2.686-6-6v2c0,3.314,2.686,6,6,6h26c3.314,0,6-2.686,6-6v-2C38,33.314,35.314,36,32,36z"/>
	</g>
</g>
<g id="Layer_2">
</g>
</svg>
