<?xml version="1.0" encoding="utf-8"?>
<!-- Generator: Adobe Illustrator 19.2.1, SVG Export Plug-In . SVG Version: 6.00 Build 0)  -->
<svg version="1.1" id="Layer_1" xmlns="http://www.w3.org/2000/svg" xmlns:xlink="http://www.w3.org/1999/xlink" x="0px" y="0px"
	 viewBox="0 0 38 38" style="enable-background:new 0 0 38 38;" xml:space="preserve">
<style type="text/css">
	.st0{clip-path:url(#SVGID_2_);}
	.st1{fill:#EA0020;}
	.st2{fill:#FFFFFF;}
	.st3{opacity:0.2;}
</style>
<g id="Layer_1_1_">
	<g>
		<g>
			<defs>
				<path id="SVGID_1_" d="M38,32c0,3.3-2.7,6-6,6H6c-3.3,0-6-2.7-6-6V6c0-3.3,2.7-6,6-6h26c3.3,0,6,2.7,6,6V32z"/>
			</defs>
			<clipPath id="SVGID_2_">
				<use xlink:href="#SVGID_1_"  style="overflow:visible;"/>
			</clipPath>
			<g class="st0">
				<rect x="-4.1" class="st1" width="10.9" height="38.1"/>
				<rect x="31.3" class="st1" width="10.9" height="38.1"/>
				<rect x="6.8" class="st2" width="24.6" height="38.1"/>
				<g>
					<path class="st1" d="M19.1,8.6l-1.5,2.9c-0.2,0.3-0.5,0.3-0.8,0.1L15.7,11l0.8,4.4c0.2,0.8-0.4,0.8-0.6,0.5L14,13.7l-0.3,1.1
						c0,0.1-0.2,0.3-0.4,0.3l-2.4-0.5l0.6,2.4c0.1,0.5,0.2,0.7-0.1,0.9l-0.8,0.4l4.1,3.5c0.2,0.1,0.2,0.4,0.2,0.6l-0.4,1.2
						c1.4-0.2,2.7-0.3,4.1-0.5c0.1,0,0.3,0.1,0.3,0.3l-0.2,4.5h0.7l-0.1-4.5c0-0.1,0.2-0.3,0.3-0.3c1.4,0.2,2.7,0.3,4.1,0.5
						l-0.4-1.2c-0.1-0.2,0-0.4,0.2-0.6l4.1-3.5l-0.8-0.4c-0.4-0.1-0.3-0.4-0.1-0.9l0.6-2.4l-2.4,0.5c-0.2,0-0.4-0.1-0.4-0.3
						l-0.3-1.1l-1.9,2.2c-0.3,0.3-0.8,0.3-0.6-0.5l0.8-4.4l-1.1,0.6c-0.3,0.2-0.6,0.2-0.8-0.1L19.1,8.6z"/>
				</g>
			</g>
		</g>
	</g>
	<g class="st3">
		<path d="M32,36H6c-3.3,0-6-2.7-6-6v2c0,3.3,2.7,6,6,6h26c3.3,0,6-2.7,6-6v-2C38,33.3,35.3,36,32,36z"/>
	</g>
</g>
<g id="Layer_2">
</g>
</svg>
