<?xml version="1.0" encoding="utf-8"?>
<!-- Generator: Adobe Illustrator 17.1.0, SVG Export Plug-In . SVG Version: 6.00 Build 0)  -->
<!DOCTYPE svg PUBLIC "-//W3C//DTD SVG 1.1//EN" "http://www.w3.org/Graphics/SVG/1.1/DTD/svg11.dtd">
<svg version="1.1" xmlns="http://www.w3.org/2000/svg" xmlns:xlink="http://www.w3.org/1999/xlink" x="0px" y="0px"
	 viewBox="0 0 38 38" enable-background="new 0 0 38 38" xml:space="preserve">
<g id="Layer_1">
	<g>
		<defs>
			<path id="SVGID_29_" d="M38,32c0,3.314-2.686,6-6,6H6c-3.314,0-6-2.686-6-6V6c0-3.314,2.686-6,6-6h26c3.314,0,6,2.686,6,6V32z"/>
		</defs>
		<clipPath id="SVGID_2_">
			<use xlink:href="#SVGID_29_"  overflow="visible"/>
		</clipPath>
		<g clip-path="url(#SVGID_2_)">
			<g>
				<defs>
					<rect id="SVGID_31_" x="-13.571" width="65.142" height="38"/>
				</defs>
				<clipPath id="SVGID_4_">
					<use xlink:href="#SVGID_31_"  overflow="visible"/>
				</clipPath>
				<rect x="-13.571" y="0" clip-path="url(#SVGID_4_)" fill="#EFEFEF" width="65.142" height="12.666"/>
				<rect x="-13.571" y="12.666" clip-path="url(#SVGID_4_)" fill="#1A237B" width="65.142" height="12.668"/>
				<rect x="-13.571" y="25.334" clip-path="url(#SVGID_4_)" fill="#BE003A" width="65.142" height="12.666"/>
			</g>
		</g>
	</g>
	<g opacity="0.2">
		<path d="M32,36H6c-3.314,0-6-2.686-6-6v2c0,3.314,2.686,6,6,6h26c3.314,0,6-2.686,6-6v-2C38,33.314,35.314,36,32,36z"/>
	</g>
</g>
<g id="Layer_2">
</g>
</svg>
