<?xml version="1.0" encoding="utf-8"?>
<!-- Generator: Adobe Illustrator 17.1.0, SVG Export Plug-In . SVG Version: 6.00 Build 0)  -->
<!DOCTYPE svg PUBLIC "-//W3C//DTD SVG 1.1//EN" "http://www.w3.org/Graphics/SVG/1.1/DTD/svg11.dtd">
<svg version="1.1" xmlns="http://www.w3.org/2000/svg" xmlns:xlink="http://www.w3.org/1999/xlink" x="0px" y="0px"
	 viewBox="0 0 38 38" enable-background="new 0 0 38 38" xml:space="preserve">
<g id="Layer_1">
	<g>
		<defs>
			<path id="SVGID_21_" d="M38,32c0,3.314-2.686,6-6,6H6c-3.314,0-6-2.686-6-6V6c0-3.314,2.686-6,6-6h26c3.314,0,6,2.686,6,6V32z"/>
		</defs>
		<clipPath id="SVGID_2_">
			<use xlink:href="#SVGID_21_"  overflow="visible"/>
		</clipPath>
		<g clip-path="url(#SVGID_2_)">
			<rect x="-10.573" fill="#EFEFEF" width="65.146" height="38"/>
			<g>
				<g>
					<defs>
						<rect id="SVGID_23_" x="-10.57" width="65.14" height="38"/>
					</defs>
					<clipPath id="SVGID_4_">
						<use xlink:href="#SVGID_23_"  overflow="visible"/>
					</clipPath>
					<polygon clip-path="url(#SVGID_4_)" fill="#BE003A" points="0.846,0 19.846,12.666 54.57,12.666 54.57,0 					"/>
					<polygon clip-path="url(#SVGID_4_)" fill="#1A237B" points="19.846,25.334 0.846,38 54.57,38 54.57,25.334 					"/>
					<polygon clip-path="url(#SVGID_4_)" points="-2.942,12.81 -11,7.472 -11,12.81 -11,26.19 -11,31.528 -2.942,26.19 
						7.329,19.499 					"/>
					<polygon clip-path="url(#SVGID_4_)" fill="#F2B126" points="-10.57,7.611 6.511,18.999 -10.57,30.389 -10.57,33.433 
						11.078,18.999 -10.57,4.567 					"/>
					<polygon clip-path="url(#SVGID_4_)" fill="#409A63" points="-10.57,0 -10.57,4.567 11.078,18.999 -10.57,33.433 -10.57,38 
						-3.721,38 19.079,22.799 54.57,22.799 54.57,15.201 19.079,15.201 -3.721,0 					"/>
				</g>
			</g>
		</g>
		<rect x="-13.573" clip-path="url(#SVGID_2_)" fill="none" width="65.146" height="38"/>
	</g>
	<g opacity="0.2">
		<path d="M32,36H6c-3.314,0-6-2.686-6-6v2c0,3.314,2.686,6,6,6h26c3.314,0,6-2.686,6-6v-2C38,33.314,35.314,36,32,36z"/>
	</g>
</g>
<g id="Layer_2">
</g>
</svg>
