<?xml version="1.0" encoding="utf-8"?>
<!-- Generator: Adobe Illustrator 17.1.0, SVG Export Plug-In . SVG Version: 6.00 Build 0)  -->
<!DOCTYPE svg PUBLIC "-//W3C//DTD SVG 1.1//EN" "http://www.w3.org/Graphics/SVG/1.1/DTD/svg11.dtd">
<svg version="1.1" xmlns="http://www.w3.org/2000/svg" xmlns:xlink="http://www.w3.org/1999/xlink" x="0px" y="0px"
	 viewBox="0 0 38 38" enable-background="new 0 0 38 38" xml:space="preserve">
<g id="Layer_1">
	<g>
		<defs>
			<path id="SVGID_25_" d="M38,32c0,3.314-2.686,6-6,6H6c-3.314,0-6-2.686-6-6V6c0-3.314,2.686-6,6-6h26c3.314,0,6,2.686,6,6V32z"/>
		</defs>
		<clipPath id="SVGID_2_">
			<use xlink:href="#SVGID_25_"  overflow="visible"/>
		</clipPath>
		<g clip-path="url(#SVGID_2_)">
			<g>
				<defs>
					<rect id="SVGID_27_" x="-8.001" width="65.142" height="38"/>
				</defs>
				<clipPath id="SVGID_4_">
					<use xlink:href="#SVGID_27_"  overflow="visible"/>
				</clipPath>
				<rect x="-8.001" y="35.076" clip-path="url(#SVGID_4_)" fill="#CB001C" width="65.142" height="2.924"/>
				<rect x="-8.001" y="32.153" clip-path="url(#SVGID_4_)" fill="#EFEFEF" width="65.142" height="2.924"/>
				<rect x="-8.001" y="29.231" clip-path="url(#SVGID_4_)" fill="#CB001C" width="65.142" height="2.921"/>
				<rect x="-8.001" y="26.308" clip-path="url(#SVGID_4_)" fill="#EFEFEF" width="65.142" height="2.924"/>
				<rect x="-8.001" y="23.384" clip-path="url(#SVGID_4_)" fill="#CB001C" width="65.142" height="2.924"/>
				<rect x="-8.001" y="20.463" clip-path="url(#SVGID_4_)" fill="#EFEFEF" width="65.142" height="2.921"/>
				<rect x="-8.001" y="17.539" clip-path="url(#SVGID_4_)" fill="#CB001C" width="65.142" height="2.924"/>
				<rect x="-8.001" y="14.616" clip-path="url(#SVGID_4_)" fill="#EFEFEF" width="65.142" height="2.921"/>
				<rect x="-8.001" y="11.692" clip-path="url(#SVGID_4_)" fill="#CB001C" width="65.142" height="2.924"/>
				<rect x="-8.001" y="8.769" clip-path="url(#SVGID_4_)" fill="#EFEFEF" width="65.142" height="2.924"/>
				<rect x="-8.001" y="5.845" clip-path="url(#SVGID_4_)" fill="#CB001C" width="65.142" height="2.924"/>
				<rect x="-8.001" y="2.924" clip-path="url(#SVGID_4_)" fill="#EFEFEF" width="65.142" height="2.921"/>
				<rect x="-8.001" y="0" clip-path="url(#SVGID_4_)" fill="#CB001C" width="65.142" height="2.924"/>
				<rect x="-8.001" y="0" clip-path="url(#SVGID_4_)" fill="#1A237B" width="29.742" height="20.463"/>
				<polygon clip-path="url(#SVGID_4_)" fill="#EFEFEF" points="-0.53,2.254 -0.28,3.029 0.533,3.029 -0.125,3.507 0.127,4.28 
					-0.53,3.8 -1.189,4.28 -0.938,3.507 -1.595,3.029 -0.782,3.029 				"/>
				<polygon clip-path="url(#SVGID_4_)" fill="#EFEFEF" points="1.848,4.055 2.099,4.828 2.912,4.828 2.255,5.305 2.505,6.078 
					1.848,5.601 1.19,6.078 1.441,5.305 0.784,4.828 1.597,4.828 				"/>
				<polygon clip-path="url(#SVGID_4_)" fill="#EFEFEF" points="1.848,7.471 2.099,8.242 2.912,8.242 2.255,8.721 2.505,9.494 
					1.848,9.017 1.19,9.494 1.441,8.721 0.784,8.242 1.597,8.242 				"/>
				<polygon clip-path="url(#SVGID_4_)" fill="#EFEFEF" points="1.848,10.885 2.099,11.658 2.912,11.658 2.255,12.137 2.505,12.91 
					1.848,12.433 1.19,12.91 1.441,12.137 0.784,11.658 1.597,11.658 				"/>
				<polygon clip-path="url(#SVGID_4_)" fill="#EFEFEF" points="1.848,14.3 2.099,15.074 2.912,15.074 2.255,15.553 2.505,16.324 
					1.848,15.847 1.19,16.324 1.441,15.553 0.784,15.074 1.597,15.074 				"/>
				<polygon clip-path="url(#SVGID_4_)" fill="#EFEFEF" points="4.257,2.254 4.509,3.029 5.321,3.029 4.663,3.507 4.915,4.28 
					4.257,3.8 3.599,4.28 3.851,3.507 3.193,3.029 4.006,3.029 				"/>
				<polygon clip-path="url(#SVGID_4_)" fill="#EFEFEF" points="4.257,5.67 4.509,6.443 5.321,6.443 4.663,6.92 4.915,7.695 
					4.257,7.216 3.599,7.695 3.851,6.92 3.193,6.443 4.006,6.443 				"/>
				<polygon clip-path="url(#SVGID_4_)" fill="#EFEFEF" points="4.257,9.086 4.509,9.859 5.321,9.859 4.663,10.336 4.915,11.111 
					4.257,10.632 3.599,11.111 3.851,10.336 3.193,9.859 4.006,9.859 				"/>
				<polygon clip-path="url(#SVGID_4_)" fill="#EFEFEF" points="4.257,12.502 4.509,13.275 5.321,13.275 4.663,13.754 4.915,14.525 
					4.257,14.048 3.599,14.525 3.851,13.754 3.193,13.275 4.006,13.275 				"/>
				<polygon clip-path="url(#SVGID_4_)" fill="#EFEFEF" points="4.257,15.918 4.509,16.691 5.321,16.691 4.663,17.168 4.915,17.941 
					4.257,17.464 3.599,17.941 3.851,17.168 3.193,16.691 4.006,16.691 				"/>
				<polygon clip-path="url(#SVGID_4_)" fill="#EFEFEF" points="6.636,4.055 6.887,4.828 7.7,4.828 7.042,5.305 7.293,6.078 
					6.636,5.601 5.978,6.078 6.229,5.305 5.572,4.828 6.384,4.828 				"/>
				<polygon clip-path="url(#SVGID_4_)" fill="#EFEFEF" points="6.636,7.471 6.887,8.242 7.7,8.242 7.042,8.721 7.293,9.494 
					6.636,9.017 5.978,9.494 6.229,8.721 5.572,8.242 6.384,8.242 				"/>
				<polygon clip-path="url(#SVGID_4_)" fill="#EFEFEF" points="6.636,10.885 6.887,11.658 7.7,11.658 7.042,12.137 7.293,12.91 
					6.636,12.433 5.978,12.91 6.229,12.137 5.572,11.658 6.384,11.658 				"/>
				<polygon clip-path="url(#SVGID_4_)" fill="#EFEFEF" points="6.636,14.3 6.887,15.074 7.7,15.074 7.042,15.553 7.293,16.324 
					6.636,15.847 5.978,16.324 6.229,15.553 5.572,15.074 6.384,15.074 				"/>
				<polygon clip-path="url(#SVGID_4_)" fill="#EFEFEF" points="9.045,2.254 9.297,3.029 10.11,3.029 9.452,3.507 9.703,4.28 
					9.045,3.8 8.387,4.28 8.639,3.507 7.981,3.029 8.794,3.029 				"/>
				<polygon clip-path="url(#SVGID_4_)" fill="#EFEFEF" points="9.045,5.67 9.297,6.443 10.11,6.443 9.452,6.92 9.703,7.695 
					9.045,7.216 8.387,7.695 8.639,6.92 7.981,6.443 8.794,6.443 				"/>
				<polygon clip-path="url(#SVGID_4_)" fill="#EFEFEF" points="9.045,9.086 9.297,9.859 10.11,9.859 9.452,10.336 9.703,11.111 
					9.045,10.632 8.387,11.111 8.639,10.336 7.981,9.859 8.794,9.859 				"/>
				<polygon clip-path="url(#SVGID_4_)" fill="#EFEFEF" points="9.045,12.502 9.297,13.275 10.11,13.275 9.452,13.754 9.703,14.525 
					9.045,14.048 8.387,14.525 8.639,13.754 7.981,13.275 8.794,13.275 				"/>
				<polygon clip-path="url(#SVGID_4_)" fill="#EFEFEF" points="9.045,15.918 9.297,16.691 10.11,16.691 9.452,17.168 9.703,17.941 
					9.045,17.464 8.387,17.941 8.639,17.168 7.981,16.691 8.794,16.691 				"/>
				<polygon clip-path="url(#SVGID_4_)" fill="#EFEFEF" points="11.424,4.055 11.675,4.828 12.488,4.828 11.83,5.305 12.082,6.078 
					11.424,5.601 10.765,6.078 11.018,5.305 10.36,4.828 11.172,4.828 				"/>
				<polygon clip-path="url(#SVGID_4_)" fill="#EFEFEF" points="11.424,7.471 11.675,8.242 12.488,8.242 11.83,8.721 12.082,9.494 
					11.424,9.017 10.765,9.494 11.018,8.721 10.36,8.242 11.172,8.242 				"/>
				<polygon clip-path="url(#SVGID_4_)" fill="#EFEFEF" points="11.424,10.885 11.675,11.658 12.488,11.658 11.83,12.137 
					12.082,12.91 11.424,12.433 10.765,12.91 11.018,12.137 10.36,11.658 11.172,11.658 				"/>
				<polygon clip-path="url(#SVGID_4_)" fill="#EFEFEF" points="11.424,14.3 11.675,15.074 12.488,15.074 11.83,15.553 
					12.082,16.324 11.424,15.847 10.765,16.324 11.018,15.553 10.36,15.074 11.172,15.074 				"/>
				<polygon clip-path="url(#SVGID_4_)" fill="#EFEFEF" points="13.833,2.254 14.085,3.029 14.898,3.029 14.24,3.507 14.491,4.28 
					13.833,3.8 13.176,4.28 13.426,3.507 12.769,3.029 13.582,3.029 				"/>
				<polygon clip-path="url(#SVGID_4_)" fill="#EFEFEF" points="13.833,5.67 14.085,6.443 14.898,6.443 14.24,6.92 14.491,7.695 
					13.833,7.216 13.176,7.695 13.426,6.92 12.769,6.443 13.582,6.443 				"/>
				<polygon clip-path="url(#SVGID_4_)" fill="#EFEFEF" points="13.833,9.086 14.085,9.859 14.898,9.859 14.24,10.336 
					14.491,11.111 13.833,10.632 13.176,11.111 13.426,10.336 12.769,9.859 13.582,9.859 				"/>
				<polygon clip-path="url(#SVGID_4_)" fill="#EFEFEF" points="13.833,12.502 14.085,13.275 14.898,13.275 14.24,13.754 
					14.491,14.525 13.833,14.048 13.176,14.525 13.426,13.754 12.769,13.275 13.582,13.275 				"/>
				<polygon clip-path="url(#SVGID_4_)" fill="#EFEFEF" points="13.833,15.918 14.085,16.691 14.898,16.691 14.24,17.168 
					14.491,17.941 13.833,17.464 13.176,17.941 13.426,17.168 12.769,16.691 13.582,16.691 				"/>
				<polygon clip-path="url(#SVGID_4_)" fill="#EFEFEF" points="16.211,4.055 16.463,4.828 17.276,4.828 16.619,5.305 16.869,6.078 
					16.211,5.601 15.554,6.078 15.806,5.305 15.148,4.828 15.961,4.828 				"/>
				<polygon clip-path="url(#SVGID_4_)" fill="#EFEFEF" points="16.211,7.471 16.463,8.242 17.276,8.242 16.619,8.721 16.869,9.494 
					16.211,9.017 15.554,9.494 15.806,8.721 15.148,8.242 15.961,8.242 				"/>
				<polygon clip-path="url(#SVGID_4_)" fill="#EFEFEF" points="16.211,10.885 16.463,11.658 17.276,11.658 16.619,12.137 
					16.869,12.91 16.211,12.433 15.554,12.91 15.806,12.137 15.148,11.658 15.961,11.658 				"/>
				<polygon clip-path="url(#SVGID_4_)" fill="#EFEFEF" points="16.211,14.3 16.463,15.074 17.276,15.074 16.619,15.553 
					16.869,16.324 16.211,15.847 15.554,16.324 15.806,15.553 15.148,15.074 15.961,15.074 				"/>
				<polygon clip-path="url(#SVGID_4_)" fill="#EFEFEF" points="18.621,2.254 18.872,3.029 19.685,3.029 19.028,3.507 19.279,4.28 
					18.621,3.8 17.963,4.28 18.215,3.507 17.557,3.029 18.37,3.029 				"/>
				<polygon clip-path="url(#SVGID_4_)" fill="#EFEFEF" points="18.621,5.67 18.872,6.443 19.685,6.443 19.028,6.92 19.279,7.695 
					18.621,7.216 17.963,7.695 18.215,6.92 17.557,6.443 18.37,6.443 				"/>
				<polygon clip-path="url(#SVGID_4_)" fill="#EFEFEF" points="18.621,9.086 18.872,9.859 19.685,9.859 19.028,10.336 
					19.279,11.111 18.621,10.632 17.963,11.111 18.215,10.336 17.557,9.859 18.37,9.859 				"/>
				<polygon clip-path="url(#SVGID_4_)" fill="#EFEFEF" points="18.621,12.502 18.872,13.275 19.685,13.275 19.028,13.754 
					19.279,14.525 18.621,14.048 17.963,14.525 18.215,13.754 17.557,13.275 18.37,13.275 				"/>
				<polygon clip-path="url(#SVGID_4_)" fill="#EFEFEF" points="18.621,15.918 18.872,16.691 19.685,16.691 19.028,17.168 
					19.279,17.941 18.621,17.464 17.963,17.941 18.215,17.168 17.557,16.691 18.37,16.691 				"/>
			</g>
		</g>
	</g>
	<g opacity="0.2">
		<path d="M32,36H6c-3.314,0-6-2.686-6-6v2c0,3.314,2.686,6,6,6h26c3.314,0,6-2.686,6-6v-2C38,33.314,35.314,36,32,36z"/>
	</g>
</g>
<g id="Layer_2">
</g>
</svg>
