<?xml version="1.0" encoding="utf-8"?>
<!-- Generator: Adobe Illustrator 17.1.0, SVG Export Plug-In . SVG Version: 6.00 Build 0)  -->
<!DOCTYPE svg PUBLIC "-//W3C//DTD SVG 1.1//EN" "http://www.w3.org/Graphics/SVG/1.1/DTD/svg11.dtd">
<svg version="1.1" xmlns="http://www.w3.org/2000/svg" xmlns:xlink="http://www.w3.org/1999/xlink" x="0px" y="0px"
	 viewBox="0 0 38 38" enable-background="new 0 0 38 38" xml:space="preserve">
<g id="Layer_1">
	<g>
		<defs>
			<path id="SVGID_7_" d="M38,32c0,3.314-2.686,6-6,6H6c-3.314,0-6-2.686-6-6V6c0-3.314,2.686-6,6-6h26c3.314,0,6,2.686,6,6V32z"/>
		</defs>
		<clipPath id="SVGID_2_">
			<use xlink:href="#SVGID_7_"  overflow="visible"/>
		</clipPath>
		<g clip-path="url(#SVGID_2_)">
			<g>
				<defs>
					<rect id="SVGID_9_" x="-15.448" y="-0.234" width="67.657" height="39.468"/>
				</defs>
				<clipPath id="SVGID_4_">
					<use xlink:href="#SVGID_9_"  overflow="visible"/>
				</clipPath>
				<polygon clip-path="url(#SVGID_4_)" fill="#1A237B" points="18.395,-0.234 18.395,1.02 18.395,1.45 18.395,1.65 10.886,5.404 
					18.395,5.404 18.395,6.532 18.395,8.225 18.395,9.916 18.395,11.042 10.886,11.042 18.395,14.798 18.395,15.429 18.395,16.689 
					18.395,16.794 16.082,16.794 15.221,16.794 14.822,16.794 4.285,11.526 4.285,16.794 3.157,16.794 1.466,16.794 -0.226,16.794 
					-1.354,16.794 -1.354,11.526 -11.891,16.794 -13.151,16.794 -15.448,16.794 -15.448,39.234 52.209,39.234 52.209,-0.234 				"/>
				<polygon clip-path="url(#SVGID_4_)" fill="#1A237B" points="4.285,-0.234 4.285,4.924 14.598,-0.234 				"/>
				<polygon clip-path="url(#SVGID_4_)" fill="#EFEFEF" points="18.379,-0.234 7.104,5.404 4.582,5.404 15.858,-0.234 
					14.598,-0.234 4.285,4.924 4.285,-0.234 3.157,-0.234 3.157,5.487 3.157,6.117 3.157,6.532 4.847,6.532 7.37,6.532 8.231,6.532 
					8.63,6.532 18.395,6.532 18.395,5.404 10.886,5.404 18.395,1.65 18.395,1.45 18.395,1.02 18.395,-0.234 				"/>
				<polygon clip-path="url(#SVGID_4_)" fill="#EFEFEF" points="7.37,9.916 4.847,9.916 3.157,9.916 3.157,10.331 3.157,10.762 
					3.157,10.961 3.157,16.794 4.285,16.794 4.285,11.526 14.822,16.794 15.221,16.794 16.082,16.794 18.395,16.794 18.395,16.689 
					7.104,11.042 9.624,11.042 18.395,15.429 18.395,14.798 10.886,11.042 18.395,11.042 18.395,9.916 8.63,9.916 				"/>
				<polygon clip-path="url(#SVGID_4_)" fill="#BE003A" points="18.379,-0.234 15.858,-0.234 4.582,5.404 7.104,5.404 				"/>
				<polygon clip-path="url(#SVGID_4_)" fill="#BE003A" points="7.104,11.042 18.395,16.689 18.395,15.429 9.624,11.042 				"/>
				<polygon clip-path="url(#SVGID_4_)" fill="#BE003A" points="-0.226,-0.234 -0.226,5.487 -0.226,5.687 -0.226,6.117 
					-0.226,6.532 -1.918,6.532 -4.439,6.532 -5.699,6.532 -15.448,6.532 -15.448,9.916 -5.699,9.916 -5.3,9.916 -4.439,9.916 
					-1.918,9.916 -0.226,9.916 -0.226,10.331 -0.226,10.961 -0.226,16.794 1.466,16.794 3.157,16.794 3.157,10.961 3.157,10.762 
					3.157,10.331 3.157,9.916 4.847,9.916 7.37,9.916 8.63,9.916 18.395,9.916 18.395,8.225 18.395,6.532 8.63,6.532 8.231,6.532 
					7.37,6.532 4.847,6.532 3.157,6.532 3.157,6.117 3.157,5.487 3.157,-0.234 				"/>
				<polygon clip-path="url(#SVGID_4_)" fill="#EFEFEF" points="31.516,11.284 33.353,11.284 33.922,9.535 34.489,11.284 
					36.329,11.284 34.842,12.365 35.409,14.114 33.922,13.033 32.433,14.114 33.002,12.365 				"/>
				<polygon clip-path="url(#SVGID_4_)" fill="#BE003A" points="32.33,11.551 33.546,11.551 33.922,10.394 34.297,11.551 
					35.512,11.551 34.529,12.266 34.905,13.421 33.922,12.708 32.939,13.421 33.314,12.266 				"/>
				<polygon clip-path="url(#SVGID_4_)" fill="#EFEFEF" points="24.161,18.683 26,18.683 26.568,16.933 27.136,18.683 
					28.975,18.683 27.488,19.761 28.055,21.511 26.568,20.432 25.081,21.511 25.649,19.761 				"/>
				<polygon clip-path="url(#SVGID_4_)" fill="#BE003A" points="24.977,18.949 26.192,18.949 26.568,17.792 26.943,18.949 
					28.16,18.949 27.177,19.665 27.552,20.82 26.568,20.104 25.585,20.82 25.96,19.665 				"/>
				<polygon clip-path="url(#SVGID_4_)" fill="#EFEFEF" points="31.25,30.295 33.291,30.295 33.922,28.35 34.553,30.295 
					36.596,30.295 34.943,31.497 35.574,33.441 33.922,32.239 32.271,33.441 32.902,31.497 				"/>
				<polygon clip-path="url(#SVGID_4_)" fill="#BE003A" points="32.156,30.591 33.506,30.591 33.922,29.306 34.34,30.591 
					35.689,30.591 34.597,31.387 35.015,32.672 33.922,31.876 32.831,32.672 33.249,31.387 				"/>
			</g>
		</g>
	</g>
	<g opacity="0.2">
		<path d="M32,36H6c-3.314,0-6-2.686-6-6v2c0,3.314,2.686,6,6,6h26c3.314,0,6-2.686,6-6v-2C38,33.314,35.314,36,32,36z"/>
	</g>
</g>
<g id="Layer_2">
</g>
</svg>
