<?xml version="1.0" encoding="UTF-8" standalone="no"?>
<svg
   xmlns:dc="http://purl.org/dc/elements/1.1/"
   xmlns:cc="http://creativecommons.org/ns#"
   xmlns:rdf="http://www.w3.org/1999/02/22-rdf-syntax-ns#"
   xmlns:svg="http://www.w3.org/2000/svg"
   xmlns="http://www.w3.org/2000/svg"
   xmlns:xlink="http://www.w3.org/1999/xlink"
   id="svg2"
   xml:space="preserve"
   enable-background="new 0 0 38 38"
   viewBox="0 0 38 38"
   y="0px"
   x="0px"
   version="1.1"><metadata
     id="metadata38"><rdf:RDF><cc:Work
         rdf:about=""><dc:format>image/svg+xml</dc:format><dc:type
           rdf:resource="http://purl.org/dc/dcmitype/StillImage" /><dc:title></dc:title></cc:Work></rdf:RDF></metadata><defs
     id="defs36" /><g
     id="Layer_1"><g
       id="g5"><defs
         id="defs7"><path
           d="M38,32c0,3.314-2.686,6-6,6H6c-3.314,0-6-2.686-6-6V6c0-3.314,2.686-6,6-6h26c3.314,0,6,2.686,6,6V32z"
           id="SVGID_1_" /></defs><clipPath
         id="SVGID_2_"><use
           id="use11"
           overflow="visible"
           xlink:href="#SVGID_1_" /></clipPath><g
         id="g13"
         clip-path="url(#SVGID_2_)"><g
           id="g15"><defs
             id="defs17"><rect
               height="43.152"
               width="73.973"
               y="-2.475"
               x="-17.574"
               id="SVGID_3_" /></defs><clipPath
             id="SVGID_4_"><use
               id="use21"
               overflow="visible"
               xlink:href="#SVGID_3_" /></clipPath><rect
             style="fill:#ef2b2d"
             id="rect23"
             height="43.152"
             width="73.973"
             clip-path="url(#SVGID_4_)"
             y="-2.4749999"
             x="-17.573999" /><rect
             fill="#EFEFEF"
             id="rect25"
             height="43.152"
             width="7.996"
             clip-path="url(#SVGID_4_)"
             y="-2.475"
             x="6.418" /><rect
             fill="#EFEFEF"
             id="rect27"
             height="7.996"
             width="73.973"
             clip-path="url(#SVGID_4_)"
             y="15.103"
             x="-17.574" /><rect
             style="fill:#002868"
             id="rect4168"
             width="3.220336"
             height="56.194916"
             x="8.8559322"
             y="-11.271186" /></g><rect
           y="17.389832"
           x="-16.584745"
           height="3.5326059"
           width="64.406776"
           id="rect4166"
           style="fill:#002868" /></g></g><g
       opacity="0.2"
       id="g29"><path
         id="path31"
         d="M32,36H6c-3.314,0-6-2.686-6-6v2c0,3.314,2.686,6,6,6h26c3.314,0,6-2.686,6-6v-2C38,33.314,35.314,36,32,36z" /></g></g><g
     id="Layer_2" /></svg>