<?xml version="1.0" encoding="utf-8"?>
<!-- Generator: Adobe Illustrator 17.1.0, SVG Export Plug-In . SVG Version: 6.00 Build 0)  -->
<!DOCTYPE svg PUBLIC "-//W3C//DTD SVG 1.1//EN" "http://www.w3.org/Graphics/SVG/1.1/DTD/svg11.dtd">
<svg version="1.1" xmlns="http://www.w3.org/2000/svg" xmlns:xlink="http://www.w3.org/1999/xlink" x="0px" y="0px"
	 viewBox="0 0 38 38" enable-background="new 0 0 38 38" xml:space="preserve">
<g id="Layer_1">
	<g>
		<defs>
			<path id="SVGID_17_" d="M38,32c0,3.314-2.686,6-6,6H6c-3.314,0-6-2.686-6-6V6c0-3.314,2.686-6,6-6h26c3.314,0,6,2.686,6,6V32z"/>
		</defs>
		<clipPath id="SVGID_2_">
			<use xlink:href="#SVGID_17_"  overflow="visible"/>
		</clipPath>
		<g clip-path="url(#SVGID_2_)">
			<g>
				<defs>
					<rect id="SVGID_19_" x="-19.047" y="-3" width="75.427" height="44"/>
				</defs>
				<clipPath id="SVGID_4_">
					<use xlink:href="#SVGID_19_"  overflow="visible"/>
				</clipPath>
				<rect x="-19.047" y="-3" clip-path="url(#SVGID_4_)" fill="#EFEFEF" width="75.427" height="44"/>
				<polygon clip-path="url(#SVGID_4_)" fill="#BE003A" points="31.458,12.908 56.38,-1.042 56.38,-3 54.66,-3 26.242,12.908 				
					"/>
				<polygon clip-path="url(#SVGID_4_)" fill="#BE003A" points="30.28,25.977 56.38,40.58 56.38,37.66 35.495,25.977 				"/>
				<polygon clip-path="url(#SVGID_4_)" fill="#BE003A" points="-19.047,0.353 3.279,12.908 8.495,12.908 -19.047,-2.572 				"/>
				<polygon clip-path="url(#SVGID_4_)" fill="#BE003A" points="7.316,25.977 -19.047,40.745 -19.047,41 -14.287,41 12.532,25.977 
									"/>
				<polygon clip-path="url(#SVGID_4_)" fill="#1A237B" points="51.221,-3 24.811,-3 24.811,11.793 				"/>
				<polygon clip-path="url(#SVGID_4_)" fill="#1A237B" points="13.148,-3 -13.155,-3 13.148,11.793 				"/>
				<polygon clip-path="url(#SVGID_4_)" fill="#1A237B" points="-11.662,41 13.148,41 13.148,27.094 				"/>
				<polygon clip-path="url(#SVGID_4_)" fill="#1A237B" points="24.811,41 49.699,41 24.811,27.094 				"/>
				<polygon clip-path="url(#SVGID_4_)" fill="#BE003A" points="15.48,-3 15.48,15.524 -19.047,15.524 -19.047,23.364 15.48,23.364 
					15.48,41 22.479,41 22.479,23.364 56.38,23.364 56.38,15.524 22.479,15.524 22.479,-3 				"/>
			</g>
		</g>
	</g>
	<g opacity="0.2">
		<path d="M32,36H6c-3.314,0-6-2.686-6-6v2c0,3.314,2.686,6,6,6h26c3.314,0,6-2.686,6-6v-2C38,33.314,35.314,36,32,36z"/>
	</g>
</g>
<g id="Layer_2">
</g>
</svg>
