<?xml version="1.0" encoding="utf-8"?>
<!-- Generator: Adobe Illustrator 19.2.1, SVG Export Plug-In . SVG Version: 6.00 Build 0)  -->
<svg version="1.1" id="Layer_1" xmlns="http://www.w3.org/2000/svg" xmlns:xlink="http://www.w3.org/1999/xlink" x="0px" y="0px"
	 viewBox="0 0 38 38" style="enable-background:new 0 0 38 38;" xml:space="preserve">
<style type="text/css">
	.st0{clip-path:url(#SVGID_2_);}
	.st1{clip-path:url(#SVGID_4_);fill:#2D5A95;}
	.st2{clip-path:url(#SVGID_4_);fill:#F3D02F;}
	.st3{opacity:0.2;}
</style>
<g id="Layer_1_1_">
	<g>
		<g>
			<defs>
				<path id="SVGID_1_" d="M38,32c0,3.3-2.7,6-6,6H6c-3.3,0-6-2.7-6-6V6c0-3.3,2.7-6,6-6h26c3.3,0,6,2.7,6,6V32z"/>
			</defs>
			<clipPath id="SVGID_2_">
				<use xlink:href="#SVGID_1_"  style="overflow:visible;"/>
			</clipPath>
			<g class="st0">
				<g>
					<defs>
						<rect id="SVGID_3_" x="-11.2" y="-0.1" width="65.2" height="38.1"/>
					</defs>
					<clipPath id="SVGID_4_">
						<use xlink:href="#SVGID_3_"  style="overflow:visible;"/>
					</clipPath>
					<rect x="-11.2" y="-0.1" class="st1" width="65.2" height="38.1"/>
					<rect x="7.8" y="-0.1" class="st2" width="7.6" height="38.1"/>
					<rect x="-11.2" y="15.2" class="st2" width="65.2" height="7.6"/>
				</g>
			</g>
		</g>
	</g>
	<g class="st3">
		<path d="M32,36H6c-3.3,0-6-2.7-6-6v2c0,3.3,2.7,6,6,6h26c3.3,0,6-2.7,6-6v-2C38,33.3,35.3,36,32,36z"/>
	</g>
</g>
<g id="Layer_2">
</g>
</svg>
