<?xml version="1.0" encoding="utf-8"?>
<!-- Generator: Adobe Illustrator 17.1.0, SVG Export Plug-In . SVG Version: 6.00 Build 0)  -->
<!DOCTYPE svg PUBLIC "-//W3C//DTD SVG 1.1//EN" "http://www.w3.org/Graphics/SVG/1.1/DTD/svg11.dtd">
<svg version="1.1" xmlns="http://www.w3.org/2000/svg" xmlns:xlink="http://www.w3.org/1999/xlink" x="0px" y="0px"
	 viewBox="0 0 38 38" enable-background="new 0 0 38 38" xml:space="preserve">
<g id="Layer_1">
	<g>
		<defs>
			<path id="SVGID_11_" d="M38,32c0,3.314-2.686,6-6,6H6c-3.314,0-6-2.686-6-6V6c0-3.314,2.686-6,6-6h26c3.314,0,6,2.686,6,6V32z"/>
		</defs>
		<clipPath id="SVGID_2_">
			<use xlink:href="#SVGID_11_"  overflow="visible"/>
		</clipPath>
		<g clip-path="url(#SVGID_2_)">
			<polygon fill="#1A237B" points="18.395,-0.234 18.395,1.02 18.395,1.45 18.395,1.65 10.886,5.404 18.395,5.404 18.395,6.532 
				18.395,8.225 18.395,9.916 18.395,11.042 10.886,11.042 18.395,14.798 18.395,15.429 18.395,16.689 18.395,16.794 16.082,16.794 
				15.221,16.794 14.822,16.794 4.285,11.526 4.285,16.794 3.157,16.794 1.466,16.794 -0.226,16.794 -1.354,16.794 -1.354,11.526 
				-11.891,16.794 -13.151,16.794 -15.448,16.794 -15.448,39.234 52.209,39.234 52.209,-0.234 			"/>
			<polygon fill="#1A237B" points="4.285,-0.234 4.285,4.924 14.598,-0.234 			"/>
			<polygon fill="#EFEFEF" points="18.379,-0.234 7.104,5.404 4.582,5.404 15.858,-0.234 14.598,-0.234 4.285,4.924 4.285,-0.234 
				3.157,-0.234 3.157,5.487 3.157,6.117 3.157,6.532 4.847,6.532 7.37,6.532 8.231,6.532 8.63,6.532 18.395,6.532 18.395,5.404 
				10.886,5.404 18.395,1.65 18.395,1.45 18.395,1.02 18.395,-0.234 			"/>
			<polygon fill="#EFEFEF" points="7.37,9.916 4.847,9.916 3.157,9.916 3.157,10.331 3.157,10.762 3.157,10.961 3.157,16.794 
				4.285,16.794 4.285,11.526 14.822,16.794 15.221,16.794 16.082,16.794 18.395,16.794 18.395,16.689 7.104,11.042 9.624,11.042 
				18.395,15.429 18.395,14.798 10.886,11.042 18.395,11.042 18.395,9.916 8.63,9.916 			"/>
			<polygon fill="#BE003A" points="18.379,-0.234 15.858,-0.234 4.582,5.404 7.104,5.404 			"/>
			<polygon fill="#BE003A" points="7.104,11.042 18.395,16.689 18.395,15.429 9.624,11.042 			"/>
			<polygon fill="#BE003A" points="-0.226,-0.234 -0.226,5.487 -0.226,5.687 -0.226,6.117 -0.226,6.532 -1.918,6.532 -4.439,6.532 
				-5.699,6.532 -15.448,6.532 -15.448,9.916 -5.699,9.916 -5.3,9.916 -4.439,9.916 -1.918,9.916 -0.226,9.916 -0.226,10.331 
				-0.226,10.961 -0.226,16.794 1.466,16.794 3.157,16.794 3.157,10.961 3.157,10.762 3.157,10.331 3.157,9.916 4.847,9.916 
				7.37,9.916 8.63,9.916 18.395,9.916 18.395,8.225 18.395,6.532 8.63,6.532 8.231,6.532 7.37,6.532 4.847,6.532 3.157,6.532 
				3.157,6.117 3.157,5.487 3.157,-0.234 			"/>
			<rect x="-15.448" y="-0.234" fill="none" width="67.657" height="39.468"/>
			<polygon fill="#EFEFEF" points="0.683,23.701 1.715,26.905 4.859,25.713 2.998,28.514 5.89,30.23 2.54,30.522 3.001,33.851 
				0.683,31.416 -1.633,33.851 -1.17,30.522 -4.521,30.23 -1.629,28.514 -3.49,25.713 -0.345,26.905 			"/>
			<polygon fill="#EFEFEF" points="36.282,29.466 36.773,30.989 38.269,30.424 37.385,31.757 38.762,32.574 37.165,32.713 
				37.386,34.298 36.282,33.137 35.179,34.298 35.398,32.713 33.803,32.574 35.181,31.757 34.294,30.424 35.792,30.989 			"/>
			<polygon fill="#EFEFEF" points="27.383,15.375 27.874,16.9 29.371,16.331 28.484,17.668 29.861,18.482 28.267,18.621 
				28.486,20.207 27.383,19.047 26.279,20.207 26.499,18.621 24.904,18.482 26.281,17.668 25.395,16.331 26.892,16.9 			"/>
			<polygon fill="#EFEFEF" points="36.282,5.733 36.773,7.258 38.269,6.692 37.385,8.025 38.762,8.844 37.165,8.981 37.386,10.567 
				36.282,9.408 35.179,10.567 35.398,8.981 33.803,8.844 35.181,8.025 34.294,6.692 35.792,7.258 			"/>
		</g>
	</g>
	<g opacity="0.2">
		<path d="M32,36H6c-3.314,0-6-2.686-6-6v2c0,3.314,2.686,6,6,6h26c3.314,0,6-2.686,6-6v-2C38,33.314,35.314,36,32,36z"/>
	</g>
</g>
<g id="Layer_2">
</g>
</svg>
