<?xml version="1.0" encoding="utf-8"?>
<!-- Generator: Adobe Illustrator 19.2.0, SVG Export Plug-In . SVG Version: 6.00 Build 0)  -->
<svg version="1.0" id="Layer_1" xmlns="http://www.w3.org/2000/svg" xmlns:xlink="http://www.w3.org/1999/xlink" x="0px" y="0px"
	 viewBox="0 0 38 38" enable-background="new 0 0 38 38" xml:space="preserve">
<title>parkrun-flag-sg</title>
<g>
	<defs>
		<path id="SVGID_1_" d="M6,0h26c3.3,0,6,2.7,6,6v26c0,3.3-2.7,6-6,6H6c-3.3,0-6-2.7-6-6V6C0,2.7,2.7,0,6,0z"/>
	</defs>
	<clipPath id="SVGID_2_">
		<use xlink:href="#SVGID_1_"  overflow="visible"/>
	</clipPath>
	<g clip-path="url(#SVGID_2_)">
		<g>
			<defs>
				<rect id="SVGID_3_" x="-13.6" width="65.1" height="38"/>
			</defs>
			<clipPath id="SVGID_4_">
				<use xlink:href="#SVGID_3_"  overflow="visible"/>
			</clipPath>
			<g clip-path="url(#SVGID_4_)">
				<rect x="-13.6" fill="#BE003A" width="65.1" height="19"/>
				<rect x="-13.6" y="19" fill="#F4F4F4" width="65.1" height="19"/>
			</g>
		</g>
		<g opacity="0.2">
			<path d="M32,36H6c-3.3,0-6-2.7-6-6v2c0,3.3,2.7,6,6,6h26c3.3,0,6-2.7,6-6v-2C38,33.3,35.3,36,32,36z"/>
		</g>
		<path fill="#F4F4F4" d="M15.8,9.5c0,3.6-2.9,6.5-6.5,6.5c-3.6,0-6.5-2.9-6.5-6.5C2.9,5.9,5.8,3,9.3,3C12.9,3,15.8,5.9,15.8,9.5
			L15.8,9.5"/>
		<path fill="#BE003A" d="M17.8,9.5c0,3.4-2.7,6.1-6.1,6.1s-6.1-2.7-6.1-6.1s2.7-6.1,6.1-6.1c0,0,0,0,0,0
			C15.1,3.4,17.8,6.1,17.8,9.5"/>
		<polygon fill="#F4F4F4" points="10.1,9.7 9.3,9 8.4,9.7 8.7,8.6 7.8,7.9 8.9,7.9 9.3,6.8 9.6,7.9 10.7,7.9 9.8,8.6 		"/>
		<polygon fill="#F4F4F4" points="17,9.7 16.1,9 15.3,9.7 15.6,8.6 14.7,7.9 15.8,7.9 16.1,6.8 16.5,7.9 17.6,7.9 16.7,8.6 		"/>
		<polygon fill="#F4F4F4" points="13.6,7.1 12.7,6.4 11.8,7.1 12.2,6 11.3,5.3 12.4,5.3 12.7,4.3 13,5.3 14.1,5.3 13.2,6 		"/>
		<polygon fill="#F4F4F4" points="11.4,13.7 10.5,13.1 9.7,13.7 10,12.7 9.1,12 10.2,12 10.5,10.9 10.9,12 12,12 11.1,12.7 		"/>
		<polygon fill="#F4F4F4" points="15.7,13.7 14.9,13.1 14,13.7 14.3,12.7 13.4,12 14.5,12 14.9,10.9 15.2,12 16.3,12 15.4,12.7 		
			"/>
	</g>
</g>
</svg>
